<svg width="30" height="30" viewBox="0 0 30 30" fill="none" xmlns="http://www.w3.org/2000/svg">
<path d="M5.83883 4.8L5.42291 1.8H3.92821C3.70476 0.768 2.92891 0 1.9996 0C0.896821 0 0 1.0764 0 2.4C0 3.7236 0.896821 4.8 1.9996 4.8C2.92891 4.8 3.70476 4.032 3.92821 3H4.57509L4.82504 4.8H4.80654L7.39102 20.4096C6.15877 20.5224 5.13247 21.6612 5.0115 23.094C4.94051 23.937 5.17147 24.7812 5.64537 25.4088C6.11978 26.0388 6.79564 26.4 7.4985 26.4H8.4983C8.4983 28.3854 9.84353 30 11.4977 30C13.1519 30 14.4971 28.3854 14.4971 26.4H19.996C19.996 28.3854 21.3412 30 22.9954 30C24.6496 30 25.9948 28.3854 25.9948 26.4H27.9944C28.2708 26.4 28.4943 26.1318 28.4943 25.8C28.4943 25.4682 28.2708 25.2 27.9944 25.2H25.8198C25.4069 23.8038 24.2986 22.8 22.9954 22.8C21.6922 22.8 20.5839 23.8038 20.171 25.2H14.3221C13.9092 23.8038 12.8009 22.8 11.4977 22.8C10.1945 22.8 9.08618 23.8038 8.67327 25.2H7.4985C7.07758 25.2 6.67267 24.9828 6.38672 24.6042C6.09828 24.2208 5.96281 23.7276 6.0063 23.2146C6.08228 22.3092 6.77914 21.6006 7.59248 21.6006H7.9829C7.9929 21.6006 8.0029 21.6006 8.0129 21.6006L19.1602 21.5964C19.1607 21.5964 19.1607 21.5964 19.1612 21.5964L24.8175 21.594H24.8185L27.5065 21.5928C28.8817 21.5928 30 20.2506 30 18.6006V4.7928L5.83883 4.8ZM1.9996 3.6C1.44821 3.6 0.9998 3.0618 0.9998 2.4C0.9998 1.7382 1.44821 1.2 1.9996 1.2C2.55099 1.2 2.9994 1.7382 2.9994 2.4C2.9994 3.0618 2.55099 3.6 1.9996 3.6ZM22.9954 24C24.0982 24 24.995 25.0764 24.995 26.4C24.995 27.7236 24.0982 28.8 22.9954 28.8C21.8926 28.8 20.9958 27.7236 20.9958 26.4C20.9958 25.0764 21.8926 24 22.9954 24ZM11.4977 24C12.6005 24 13.4973 25.0764 13.4973 26.4C13.4973 27.7236 12.6005 28.8 11.4977 28.8C10.3949 28.8 9.4981 27.7236 9.4981 26.4C9.4981 25.0764 10.3949 24 11.4977 24ZM29.0007 15.126L24.6116 20.3934L20.3689 20.3952L29.0007 10.0344V15.126ZM29.0007 8.3376L18.9547 20.3958L14.7106 20.3976L26.7122 5.9934L29.0007 5.9928V8.3376ZM9.05369 20.3994L21.0548 5.9952L25.2979 5.994L13.2963 20.3976L9.05369 20.3994ZM6.64017 9.7194L9.74005 5.9988L13.9837 5.9976L7.34353 13.9668L6.64017 9.7194ZM8.32584 5.9994L6.40572 8.304L6.02429 6.0006L8.32584 5.9994ZM7.57748 15.3828L15.3974 5.997L19.6406 5.9958L8.30584 19.5996C8.29534 19.6122 8.29184 19.6284 8.28284 19.641L7.57748 15.3828ZM27.5065 20.3928L26.0253 20.3934L29.0002 16.8234V18.6006C29.0007 19.5888 28.3303 20.3928 27.5065 20.3928Z" fill="#151515"/>
</svg>
