<svg width="32" height="30" viewBox="0 0 32 30" fill="none" xmlns="http://www.w3.org/2000/svg">
<path d="M3.67813 16.7506L15.0261 27.4109C15.417 27.7779 15.6124 27.9616 15.8428 28.0068C15.9466 28.0272 16.0534 28.0272 16.1572 28.0068C16.3877 27.9616 16.583 27.7779 16.9739 27.4109L28.3219 16.7506C31.5147 13.7513 31.9024 8.81556 29.2171 5.35447L28.7123 4.70367C25.4998 0.563209 19.0516 1.25759 16.7944 5.98707C16.4755 6.65514 15.5246 6.65514 15.2056 5.98707C12.9485 1.25759 6.50026 0.563209 3.28782 4.70368L2.78291 5.35447C0.0975749 8.81556 0.4853 13.7513 3.67813 16.7506Z" stroke="#151515" stroke-width="2"/>
</svg>
